HIERARCHY
ROOT SpineBase
{
  OFFSET 0.000000 0.000000 0.000000
  CHANNELS 6 Xposition Yposition Zposition Zrotation Xrotation Yrotation
  JOINT SpineMid
  {
    OFFSET -0.000000 32.084843 0.000000
    CHANNELS 3 Zrotation Xrotation Yrotation
    JOINT SpineShoulder
    {
      OFFSET 0.172699 23.765679 -0.627299
      CHANNELS 3 Zrotation Xrotation Yrotation
      JOINT Neck
      {
        OFFSET 0.131363 7.845544 -0.519013
        CHANNELS 3 Zrotation Xrotation Yrotation
        JOINT Head
        {
          OFFSET 4.393215 12.179728 3.739830
          CHANNELS 3 Zrotation Xrotation Yrotation
          End Site
          {
            OFFSET 0 0 0
          }
        }
      }
      JOINT ShoulderLeft
      {
        OFFSET -8.540908 -2.358385 -14.333530
        CHANNELS 3 Zrotation Xrotation Yrotation
        JOINT ElbowLeft
        {
          OFFSET -3.527851 -23.383723 -6.267553
          CHANNELS 3 Zrotation Xrotation Yrotation
          JOINT WristLeft
          {
            OFFSET 6.191020 -20.955848 -0.838764
            CHANNELS 3 Zrotation Xrotation Yrotation
            JOINT HandLeft
            {
              OFFSET 2.100583 -6.879072 2.448063
              CHANNELS 3 Zrotation Xrotation Yrotation
              JOINT HandTipLeft
              {
                OFFSET 1.998406 -6.359169 -1.466339
                CHANNELS 3 Zrotation Xrotation Yrotation
                End Site
                {
                  OFFSET 0 0 0
                }
              }
              JOINT ThumbLeft
              {
                OFFSET 2.424011 2.170243 -1.966110
                CHANNELS 3 Zrotation Xrotation Yrotation
                End Site
                {
                  OFFSET 0 0 0
                }
              }
            }
          }
        }
      }
      JOINT ShoulderRight
      {
        OFFSET 9.437125 -4.012255 14.959812
        CHANNELS 3 Zrotation Xrotation Yrotation
        JOINT ElbowRight
        {
          OFFSET 2.774799 -27.939620 -4.788918
          CHANNELS 3 Zrotation Xrotation Yrotation
          JOINT WristRight
          {
            OFFSET 12.268190 0.231305 -9.730115
            CHANNELS 3 Zrotation Xrotation Yrotation
            JOINT HandRight
            {
              OFFSET 4.578827 0.254622 -3.248605
              CHANNELS 3 Zrotation Xrotation Yrotation
              JOINT HandTipRight
              {
                OFFSET 1.956598 1.288001 -3.653035
                CHANNELS 3 Zrotation Xrotation Yrotation
                End Site
                {
                  OFFSET 0 0 0
                }
              }
              JOINT ThumbRight
              {
                OFFSET 1.627033 4.572941 -1.692718
                CHANNELS 3 Zrotation Xrotation Yrotation
                End Site
                {
                  OFFSET 0 0 0
                }
              }
            }
          }
        }
      }
    }
  }
  JOINT HipLeft
  {
    OFFSET -3.173522 2.008753 -9.558640
    CHANNELS 3 Zrotation Xrotation Yrotation
    JOINT KneeLeft
    {
      OFFSET -8.254270 -33.237599 -3.064590
      CHANNELS 3 Zrotation Xrotation Yrotation
      JOINT AnkleLeft
      {
        OFFSET -11.819441 -36.251811 5.442785
        CHANNELS 3 Zrotation Xrotation Yrotation
        JOINT FootLeft
        {
          OFFSET 8.835330 -3.062601 -8.007979
          CHANNELS 3 Zrotation Xrotation Yrotation
          End Site
          {
            OFFSET 0 0 0
          }
        }
      }
    }
  }
  JOINT HipRight
  {
    OFFSET 5.223646 -0.195417 2.363132
    CHANNELS 3 Zrotation Xrotation Yrotation
    JOINT KneeRight
    {
      OFFSET -3.149423 -34.132868 3.837871
      CHANNELS 3 Zrotation Xrotation Yrotation
      JOINT AnkleRight
      {
        OFFSET -7.612200 -33.612824 3.104427
        CHANNELS 3 Zrotation Xrotation Yrotation
        JOINT FootRight
        {
          OFFSET 8.633955 -3.096020 -8.086221
          CHANNELS 3 Zrotation Xrotation Yrotation
          End Site
          {
            OFFSET 0 0 0
          }
        }
      }
    }
  }
}
MOTION
Frames: 16
Frame Time: 0.033333
-89.380263 71.420795 330.097277 0.000000 0.000000 -54.840830 -0.000000 -0.000000 54.840830 -0.000000 0.000000 0.000000 -0.000000 0.000000 0.000000 0.000000 0.000000 0.000000 -0.000000 0.000000 0.000000 -0.000000 0.000000 0.000000 -0.000000 0.000000 0.000000 -0.000000 0.000000 0.000000 0.000000 0.000000 0.000000 0.000000 0.000000 0.000000 -0.000000 0.000000 0.000000 -0.000000 0.000000 0.000000 -0.000000 0.000000 0.000000 -0.000000 0.000000 0.000000 0.000000 0.000000 0.000000 0.000000 0.000000 0.000000 -0.000000 -0.000000 54.840830 -0.000000 0.000000 0.000000 -0.000000 0.000000 0.000000 0.000000 0.000000 0.000000 -0.000000 -0.000000 54.840830 -0.000000 0.000000 0.000000 -0.000000 0.000000 0.000000 0.000000 0.000000 0.000000
-89.401798 71.437174 330.155460 0.232622 -0.143470 -55.410140 -0.250169 -0.110055 55.410191 -0.000000 0.000000 0.000000 -0.000000 0.000000 0.000000 0.000000 0.000000 0.000000 -0.000000 0.000000 0.000000 -0.000000 0.000000 0.000000 -1.224325 1.679448 0.095911 2.513087 -2.150691 -0.460632 0.000000 0.000000 0.000000 0.000000 0.000000 0.000000 0.131348 0.806261 0.056562 -0.296465 -0.909335 -1.338764 0.161837 0.107012 1.277737 -0.662157 0.562369 -2.742665 0.000000 0.000000 0.000000 0.000000 0.000000 0.000000 -0.250169 -0.110055 55.410191 -0.000000 0.000000 0.000000 -0.000000 0.000000 0.000000 0.000000 0.000000 0.000000 -0.250169 -0.110055 55.410191 -0.000000 0.000000 0.000000 -0.000000 0.000000 0.000000 0.000000 0.000000 0.000000
-89.449502 71.446823 330.194775 0.444693 -0.285012 -55.924160 -0.485230 -0.208651 55.924383 0.527838 -0.638714 0.048541 -0.527330 0.639134 -0.042658 0.000000 0.000000 0.000000 -0.527330 0.639134 -0.042658 0.725676 -0.653594 -0.217643 -2.985240 3.701339 0.450850 4.577237 -3.960053 -0.752127 0.000000 0.000000 0.000000 0.000000 0.000000 0.000000 -0.320366 2.077010 0.059739 -0.536837 -1.640340 -2.567737 -0.348322 -0.338077 3.010489 -0.517963 1.597357 -5.682463 0.000000 0.000000 0.000000 0.000000 0.000000 0.000000 -0.485230 -0.208651 55.924383 -0.000000 0.000000 0.000000 -0.000000 0.000000 0.000000 0.000000 0.000000 0.000000 -0.485230 -0.208651 55.924383 -0.000000 0.000000 0.000000 -0.000000 0.000000 0.000000 0.000000 0.000000 0.000000
-89.523375 71.449739 330.215221 0.636059 -0.424527 -56.378388 0.326631 -0.076620 56.407519 -0.018480 -0.169455 0.039747 -0.733717 0.909223 -0.057965 0.000000 0.000000 0.000000 -0.733717 0.909223 -0.057965 1.000879 -0.931434 -0.306415 -4.081009 5.037889 0.665868 6.189749 -5.410608 -0.928980 0.000000 0.000000 0.000000 0.000000 0.000000 0.000000 -0.506679 2.810314 0.084508 -0.718555 -2.198146 -3.658184 -0.484535 -0.482624 4.082691 -0.652503 2.239034 -7.658411 0.000000 0.000000 0.000000 0.000000 0.000000 0.000000 -0.545297 -1.117861 56.582136 0.598838 0.587274 -0.204298 0.196725 -0.147637 -0.938547 0.000000 0.000000 0.000000 -0.705693 -0.294598 56.378930 -0.000000 0.000000 0.000000 0.208576 -0.140278 -0.933928 0.000000 0.000000 0.000000
-89.623416 71.445924 330.216798 0.806591 -0.561921 -56.768717 0.389369 -0.103205 56.806590 -0.030233 -0.200811 0.049233 -0.901982 1.146246 -0.069878 0.000000 0.000000 0.000000 -0.901982 1.146246 -0.069878 1.218099 -1.176490 -0.382788 -4.897968 6.024193 0.847616 7.346487 -6.493055 -1.034912 0.000000 0.000000 0.000000 0.000000 0.000000 0.000000 -0.709522 3.346244 0.107995 -0.838383 -2.586161 -4.585138 -0.606555 -0.609577 4.839542 -0.703152 2.740969 -8.984109 0.000000 0.000000 0.000000 0.000000 0.000000 0.000000 -0.696865 -1.326816 57.011242 0.688142 0.703200 -0.242532 0.248288 -0.165205 -1.122638 0.000000 0.000000 0.000000 -0.912044 -0.366757 56.769753 -0.000000 0.000000 0.000000 0.262324 -0.155651 -1.115654 0.000000 0.000000 0.000000
-89.749627 71.435377 330.199507 0.956192 -0.697105 -57.091507 0.429003 -0.131559 57.137343 -0.044670 -0.219771 0.056695 -1.032198 1.350192 -0.078780 0.000000 0.000000 0.000000 -0.823362 2.220470 -0.271917 1.178086 -2.255233 -0.241253 -5.427911 6.658187 0.981541 8.042975 -7.202922 -1.101892 0.000000 0.000000 0.000000 0.000000 0.000000 0.000000 -0.929064 3.686987 0.130945 -0.892655 -2.806056 -5.328798 -0.721829 -0.718291 5.264955 -0.672641 3.089161 -9.636066 0.000000 0.000000 0.000000 0.000000 0.000000 0.000000 -0.837643 -1.454115 57.358385 0.723347 0.780475 -0.265699 0.292949 -0.166451 -1.241275 0.000000 0.000000 0.000000 -0.515205 0.284859 57.207089 -0.915219 0.111616 -0.112245 0.308248 -0.154799 -1.231422 0.000000 0.000000 0.000000
-89.927754 71.413649 330.156339 1.112886 -0.866767 -57.382950 0.441525 -0.177770 57.437320 -0.072228 -0.222232 0.062319 -1.126387 1.558763 -0.085357 0.000000 0.000000 0.000000 -0.720507 2.574248 -0.361101 1.007656 -2.626734 -0.229390 -5.096206 6.663309 1.096896 6.834602 -6.746257 -1.032479 0.000000 0.000000 0.000000 0.000000 0.000000 0.000000 -1.149880 3.717967 0.134056 -1.077183 -2.841270 -5.671562 -0.859509 -0.807984 5.087240 -0.344392 3.405778 -9.465962 0.000000 0.000000 0.000000 0.000000 0.000000 0.000000 -1.015681 -1.457794 57.649987 0.666186 0.793869 -0.263405 0.344775 -0.122122 -1.246059 0.000000 0.000000 0.000000 -0.564869 0.422244 57.532313 -1.163652 0.166356 -0.144393 0.358324 -0.108376 -1.230035 0.000000 0.000000 0.000000
-90.124282 71.391080 330.081287 1.237538 -1.012992 -57.554775 0.429370 -0.221841 57.616014 -0.100130 -0.209559 0.065361 -1.177570 1.706211 -0.089011 0.000000 0.000000 0.000000 -0.418765 2.724914 -0.474499 0.689597 -2.788534 -0.181902 -4.847128 6.636784 1.175611 6.771789 -6.561429 -1.132392 0.000000 0.000000 0.000000 0.000000 0.000000 0.000000 -1.448691 3.589641 0.156837 -1.005818 -2.681207 -5.981611 -1.088632 -0.989306 5.024279 0.554873 4.255198 -8.753653 0.000000 0.000000 0.000000 0.000000 0.000000 0.000000 -1.145420 -1.371507 57.808527 0.537829 0.779680 -0.247011 0.385255 -0.071443 -1.203465 0.000000 0.000000 0.000000 -0.591444 0.556512 57.734941 -0.466682 0.105328 -0.065601 -0.526626 0.055869 -1.292897 0.000000 0.000000 0.000000
-90.325193 71.361233 330.007717 1.318427 -1.131940 -57.617191 0.393670 -0.257569 57.682830 -0.121438 -0.188687 0.066046 -1.187063 1.793409 -0.090060 0.000000 0.000000 0.000000 -0.009661 2.702337 -0.588334 0.357753 -2.745526 -0.109866 -4.990850 6.035643 0.955679 6.302599 -6.692616 -1.116823 0.000000 0.000000 0.000000 0.000000 0.000000 0.000000 -1.605612 3.018418 0.120813 -0.814368 -2.005789 -5.613510 -0.693425 -0.616649 4.544822 -0.884733 2.565494 -8.891637 0.000000 0.000000 0.000000 0.000000 0.000000 0.000000 -1.213604 -1.245780 57.857277 0.386786 0.772506 -0.230168 0.396106 -0.023217 -1.092279 0.000000 0.000000 0.000000 -0.609581 0.688831 57.821258 -0.511674 0.031310 -0.051321 -0.656171 0.213455 -1.214740 0.000000 0.000000 0.000000
-90.507492 71.322259 329.953230 1.366416 -1.238530 -57.660296 0.377363 -0.271823 57.729486 -0.124598 -0.181324 0.067839 -0.467025 2.095814 -0.422177 0.000000 0.000000 0.000000 0.290939 2.695944 -0.676151 0.130911 -2.694634 -0.055217 -5.164002 5.886811 0.888592 7.322916 -6.730709 -1.233343 0.000000 0.000000 0.000000 0.000000 0.000000 0.000000 -2.162336 2.936364 0.215413 -0.083925 -1.672047 -6.236791 -1.121764 -0.900039 3.744440 0.540955 4.410679 -7.086883 0.000000 0.000000 0.000000 0.000000 0.000000 0.000000 -1.334407 -1.146024 57.882635 0.318416 0.722743 -0.210879 0.394906 0.001741 -1.017391 0.000000 0.000000 0.000000 -0.675441 0.817553 57.876516 -0.501319 -0.109942 -0.021731 -0.790072 0.364221 -1.177655 0.000000 0.000000 0.000000
-90.656001 71.291664 329.908894 1.398797 -1.317855 -57.674542 0.363241 -0.272058 57.746251 -0.124045 -0.173459 0.069372 -0.403872 2.078883 -0.426745 0.000000 0.000000 0.000000 0.512233 2.664867 -0.740701 0.059391 -2.698948 -0.033174 -5.555136 5.553059 0.723014 8.541364 -6.579641 -1.274636 0.000000 0.000000 0.000000 0.000000 0.000000 0.000000 -1.922177 2.800774 0.137485 -0.260790 -1.418482 -6.079726 -1.343725 -1.044067 3.213670 -0.298787 3.345908 -7.434342 0.000000 0.000000 0.000000 0.000000 0.000000 0.000000 -1.861483 -0.477483 57.682873 -0.000000 0.000000 0.000000 0.384138 0.012451 -0.958986 0.000000 0.000000 0.000000 -0.789558 0.912094 57.890599 -0.415304 -0.333584 0.029189 -0.937957 0.532861 -1.165383 0.000000 0.000000 0.000000
-90.773827 71.263845 329.873622 1.443253 -1.391694 -57.757137 0.368188 -0.265262 57.832304 -0.118961 -0.173282 0.072560 -0.478159 2.135992 -0.418707 0.000000 0.000000 0.000000 0.653663 2.658275 -0.794396 0.012682 -2.758103 -0.034196 -6.123752 5.466839 0.586648 10.274063 -6.931849 -1.411452 0.000000 0.000000 0.000000 0.000000 0.000000 0.000000 -2.186360 3.163123 0.210251 -0.073102 -1.696037 -6.899744 -1.516929 -1.061282 1.992138 0.198401 4.542776 -6.222246 0.000000 0.000000 0.000000 0.000000 0.000000 0.000000 -1.946948 -0.478399 57.766538 -0.000000 0.000000 0.000000 0.372557 0.002463 -0.957991 0.000000 0.000000 0.000000 -0.938223 0.965908 57.968045 -0.292309 -0.564880 0.085011 -1.084712 0.674540 -1.209733 0.000000 0.000000 0.000000
-90.860327 71.252924 329.847118 1.501993 -1.478809 -57.880331 0.375819 -0.259094 57.959962 -0.117362 -0.173027 0.076340 -1.360536 2.111028 -0.100393 0.000000 0.000000 0.000000 0.725215 2.686697 -0.834468 0.043478 -2.831110 -0.046200 -6.869255 5.453643 0.432128 12.217969 -7.048818 -1.430900 0.000000 0.000000 0.000000 0.000000 0.000000 0.000000 -2.346211 3.566963 0.261578 0.051566 -1.965533 -7.610692 -1.820200 -1.288527 1.808881 -0.236160 3.122749 -4.864397 0.000000 0.000000 0.000000 0.000000 0.000000 0.000000 -2.050906 -0.486048 57.891017 0.868322 0.123761 0.089318 -0.509681 -0.144944 -1.083624 0.000000 0.000000 0.000000 -1.140098 0.987069 58.080988 -0.129302 -0.799450 0.144887 -1.233238 0.789826 -1.288678 0.000000 0.000000 0.000000
-90.912687 71.251035 329.808124 1.549992 -1.529983 -58.033431 0.389391 -0.255726 58.116546 -0.114584 -0.177908 0.079598 -1.419821 2.177019 -0.103517 0.000000 0.000000 0.000000 0.709552 2.722701 -0.848596 0.215685 -2.923437 -0.075515 -7.696997 5.935214 0.451734 14.037521 -8.137489 -1.581986 0.000000 0.000000 0.000000 0.000000 0.000000 0.000000 -2.626284 4.365350 0.388563 0.186517 -2.720605 -8.771457 -1.976050 -1.426537 2.048413 -0.867503 2.111511 -4.787772 0.000000 0.000000 0.000000 0.000000 0.000000 0.000000 -2.118411 -0.505175 58.044788 0.963952 0.080749 0.118059 -0.615882 -0.134777 -1.181144 0.000000 0.000000 0.000000 -1.297057 0.960476 58.223222 0.054555 -0.982064 0.199069 -1.373574 0.871270 -1.394634 0.000000 0.000000 0.000000
-90.985697 71.247233 329.747509 1.578320 -1.559561 -58.125971 0.395438 -0.255723 58.211104 -0.111521 -0.181662 0.081492 -1.453469 2.215616 -0.105264 0.000000 0.000000 0.000000 0.627760 2.782813 -0.840288 0.584881 -3.079748 -0.124592 -8.771763 6.088913 0.324534 16.276757 -8.694911 -1.613377 0.000000 0.000000 0.000000 0.000000 0.000000 0.000000 -2.332804 4.166018 0.287528 0.268446 -2.234784 -7.671543 -3.262091 -2.501870 1.670122 1.100556 5.140003 -5.938400 0.000000 0.000000 0.000000 0.000000 0.000000 0.000000 -2.157660 -0.517047 58.137717 1.096068 -0.012676 0.169346 -0.769867 -0.086640 -1.308803 0.000000 0.000000 0.000000 -1.345461 0.948611 58.315360 0.159834 -1.104818 0.239023 -1.497084 0.940366 -1.507285 0.000000 0.000000 0.000000
-91.072569 71.236179 329.668286 1.561002 -1.547659 -58.179693 0.395395 -0.255882 58.263807 -0.105402 -0.186257 0.081070 -1.441731 2.208288 -0.104683 0.000000 0.000000 0.000000 0.549432 2.804455 -0.816065 0.842379 -3.207903 -0.171743 -8.956775 6.307818 0.421509 15.978497 -9.636450 -1.764705 0.000000 0.000000 0.000000 0.000000 0.000000 0.000000 -2.832644 4.882623 0.483970 0.494033 -3.099004 -9.624524 -2.970926 -2.503780 3.886228 -0.130613 3.682231 -7.612536 0.000000 0.000000 0.000000 0.000000 0.000000 0.000000 -2.137936 -0.510623 58.191250 1.205575 -0.143521 0.230058 -0.906001 -0.002694 -1.437950 0.000000 0.000000 0.000000 -1.271468 0.971174 58.376863 0.197405 -1.149052 0.258488 -1.603435 0.974342 -1.604775 0.000000 0.000000 0.000000
